# xmcd
#
# Track frame offsets: 
#        150
#        20896
#        38349
#        63200
#        85092
#        99805
#        119093
#        144289
#        163945
#        182895
#        202490
#
# Disc length: 2987 seconds
#
# Revision: 0
# Processed by: cddbd v1.5.2PL0 Copyright (c) Steve Scherf et al.
# Submitted via: ExactAudioCopy v0.99pb4
#
DISCID=970ba90b
DTITLE=Said Omar - Dokhtar-e-Zargar
DYEAR=1999
DGENRE=Ethnic
TTITLE0=Dokhtar-e-Zargar
TTITLE1=Bahar Aamad
TTITLE2=Ba Sar Hawaye Wo Dar Del Hawas
TTITLE3=Labe Darya Labe Darya
TTITLE4=Aan Kest Kaz Roye Karam
TTITLE5=Ay Selselaye Zolfat
TTITLE6=Geryaye Jan Soz
TTITLE7=Degar Barah Porayshanam
TTITLE8=Delem Tangast
TTITLE9=Ay Ba To Delam Hama Wafa
TTITLE10=Dar Delam Az Yak Negah
EXTD=
EXTT0=
EXTT1=
EXTT2=
EXTT3=
EXTT4=
EXTT5=
EXTT6=
EXTT7=
EXTT8=
EXTT9=
EXTT10=
PLAYORDER=
